<?xml version="1.0" encoding="utf-8"?>
<!-- Generator: Adobe Illustrator 21.0.0, SVG Export Plug-In . SVG Version: 6.00 Build 0)  -->
<svg version="1.1" id="Layer_1" xmlns="http://www.w3.org/2000/svg" xmlns:xlink="http://www.w3.org/1999/xlink" x="0px" y="0px"
	 viewBox="0 0 158 36" style="enable-background:new 0 0 158 36;" xml:space="preserve">
<style type="text/css">
	.st0{fill:#00A75D;}
	.st1{fill:#FFFFFF;}
</style>
<g>
	<g>
		<path class="st0" d="M15.6,18.5c-1.3,1.7-3.4,2.7-5.6,2.7c-0.5,0-1.7-0.1-3-0.7c-3.7-1.7-4-5.7-4-6.9c0-1.7,0.5-3.4,1.5-4.8
			C5.2,7.9,7,6,10.2,6c0.9,0,1.8,0.2,2.7,0.5c0.8,0.3,2.5,1.3,3.5,3.5l-3.1,1.4c-0.2-0.8-0.7-1.3-0.9-1.5c-0.4-0.4-1.1-1-2.4-1
			c-1,0-1.8,0.3-2.5,1.1c-1.1,1.2-1.1,2.8-1.1,3.3c0,0.7,0.1,1.3,0.2,1.6c0.4,1.7,1.6,2.9,3.4,2.9c2.5,0,3.2-2.2,3.5-2.8l2.9,1.5
			C16.3,17.3,16,17.9,15.6,18.5z"/>
		<path class="st0" d="M31.9,16.7c-0.6,1.5-2.4,4.4-6.7,4.4c-0.6,0-1.8,0-3.2-0.7c-1.5-0.7-4.2-2.7-4.2-7c0-1.5,0.4-2.7,0.6-3.2
			C19,8.9,20.9,6,25.1,6c0.5,0,1.8,0.1,3.1,0.7c1.5,0.7,4.2,2.6,4.2,6.9C32.5,14,32.5,15.4,31.9,16.7z M25.1,9.1
			c-0.3,0-1.2,0.1-1.9,0.5c-0.7,0.5-1.7,1.7-1.7,3.8c0,0.7,0.1,1.3,0.3,1.9c0.2,0.7,1.2,2.6,3.6,2.6c2.6,0,3.8-2.3,3.7-4.5
			C28.9,11.2,27.6,9.1,25.1,9.1z"/>
		<path class="st0" d="M44.6,20.7v-1.4c-0.1,0.1-0.3,0.3-0.4,0.5c-0.5,0.5-1.7,1.3-3.6,1.3c-0.5,0-1.5-0.1-2.7-0.6
			c-1.5-0.7-3.7-2.6-3.7-6.7c0-4.4,2.4-6.6,4-7.4C38.8,6.3,39.6,6,40.8,6c0.5,0,1.5,0,2.6,0.6c0.2,0.1,0.4,0.2,0.7,0.5
			c0.3,0.2,0.5,0.5,0.5,0.5V0.5H48v20.2H44.6z M44,10.7c-0.2-0.3-0.5-0.7-0.7-0.9c-0.6-0.5-1.2-0.6-1.9-0.6c-0.3,0-1,0.1-1.7,0.5
			c-1.6,1.1-1.7,3.4-1.7,3.8c0,2.1,0.9,4.5,3.4,4.5c0.9,0,1.6-0.3,2.2-1c0.9-1,1.1-2.1,1.1-3.4C44.6,12.7,44.5,11.6,44,10.7z"/>
		<path class="st0" d="M63.7,19c-0.8,0.7-2.7,2.1-5.7,2.1c-0.9,0-3.2-0.1-5.1-1.9c-1.6-1.5-2.2-3.5-2.2-5.8c0-1.2,0.2-2.3,0.6-3.4
			c0.6-1.4,2.4-4,6.5-4c3.2,0,4.9,1.7,5.6,2.7c0.7,1,1.3,2.7,1.4,5.5H54.3c0.1,0.4,0.2,1.3,0.9,2.2c0.5,0.6,1.3,1.4,3.1,1.4
			s2.8-0.8,3.3-1.3c0.1-0.1,0.3-0.3,0.5-0.7l2.9,1.7C64.8,17.9,64.4,18.4,63.7,19z M60.8,10.6c-0.3-0.7-1.1-1.8-2.9-1.8
			c-0.7,0-1.1,0.1-1.4,0.3c-1.6,0.7-2,2.3-2.1,2.7h6.7C61.1,11.8,61,11.1,60.8,10.6z"/>
		<path class="st1" d="M85.9,20.7V12c0-0.5-0.1-2.8-2.4-2.8c-0.5,0-1.8,0.2-2.5,1.5c-0.7,1-0.7,2.2-0.7,3.3v6.7h-3.4v-8
			c0-0.3,0-0.6,0-0.9c0-0.3,0-1.3-0.8-2c-0.6-0.5-1.3-0.5-1.5-0.5c-0.3,0-1.1,0.1-1.8,0.7c-1.4,1.2-1.4,3.2-1.4,4.8v6H68V6.4h3.4V8
			c0.2-0.3,0.3-0.4,0.5-0.5c0.5-0.5,2-1.5,4-1.5c1.6,0,3.2,0.7,4,2.2c0.3-0.3,0.5-0.7,1.3-1.2c0.5-0.4,1.5-1,3.2-1
			c2.2,0,4.1,0.9,4.7,3.2c0.2,0.7,0.2,1.2,0.2,2.5v9H85.9z"/>
		<path class="st1" d="M101.2,20.7l-0.1-1.1c-0.5,0.5-1,0.7-1.3,0.8c-0.9,0.4-1.8,0.7-2.9,0.7c-0.7,0-3.3-0.1-4.6-2.2
			c-0.2-0.4-0.7-1.1-0.6-2.3c0-0.8,0.2-2.4,1.9-3.6c1.2-0.8,2.3-1,3.6-1.2c2.1-0.4,2.9-0.6,3.9-1c0-0.4,0-0.8-0.2-1.2
			c-0.3-0.5-1-1-2.3-1S96.5,9,96.1,9.5s-0.4,1.1-0.4,1.3l-3.5-0.2c0-0.6,0.1-2.1,1.5-3.3C94.8,6.6,96.1,6,98.6,6
			c2.3,0,3.7,0.5,4.6,1.1c0.6,0.4,0.9,0.9,1,1.1c0.4,0.7,0.4,1.7,0.4,2.5v7.6c0,1.1,0.1,1.4,0.6,2.3h-4V20.7z M101.2,13.6
			c-0.6,0.3-1.3,0.6-2.7,0.8c-0.8,0.1-1.6,0.2-2.3,0.6c-0.5,0.3-0.8,0.8-0.8,1.4c0,0.9,0.6,1.7,2.3,1.7c1.9,0,3-1,3.3-1.6
			c0.2-0.5,0.2-0.9,0.2-1.3V13.6z"/>
		<path class="st1" d="M117.1,20.7v-7.3c0-1.1,0-1.7-0.1-2.2c-0.4-1.7-1.7-1.9-2.4-1.9c-0.4,0-1.1,0.1-1.8,0.7
			c-1,0.9-1.3,2.1-1.3,4.5v6.2H108V6.4h3.5v1.7c0.1-0.1,0.3-0.5,0.6-0.7c1.3-1.3,3.3-1.4,3.8-1.4c2.1,0,3.3,1.1,3.8,1.7
			c0.9,1.3,0.8,3.1,0.8,4.6v8.4H117.1z"/>
		<path class="st1" d="M128.1,20.9c-1.9,0-2.9-0.5-3.4-1.1c-0.3-0.3-0.4-0.7-0.4-0.8c-0.1-0.5-0.2-1.5-0.2-2.7V8.9H122V6.4h2.1V1.3
			h3.4v5.1h3.1v2.4h-3.1v6.5c0,0.6-0.1,1.7,0.3,2.1c0.4,0.5,1.2,0.4,1.3,0.4c0.5,0,1-0.1,1.4-0.2v2.9
			C130.1,20.7,129.3,20.9,128.1,20.9z"/>
		<path class="st1" d="M136.2,12.3c-0.3,0.8-0.3,1.5-0.3,2.3v6.1h-3.3V6.4h3.3v2c0.2-0.4,0.5-0.9,0.9-1.2c1.1-1.1,3-1.2,3.4-1.2h0.3
			v3.5C139.8,9.6,137.1,9.6,136.2,12.3z"/>
		<path class="st1" d="M151,20.7l-0.1-1.1c-0.5,0.5-1,0.7-1.3,0.8c-0.9,0.4-1.8,0.7-2.9,0.7c-0.7,0-3.3-0.1-4.6-2.2
			c-0.2-0.4-0.7-1.1-0.6-2.3c0-0.8,0.2-2.4,1.9-3.6c1.2-0.8,2.3-1,3.6-1.2c2.1-0.4,2.9-0.6,3.9-1c0-0.4,0-0.8-0.2-1.2
			c-0.3-0.5-1-1-2.3-1s-2.1,0.4-2.5,0.9s-0.4,1.1-0.4,1.3l-3.5-0.2c0-0.6,0.1-2.1,1.5-3.3c0.9-0.7,2.2-1.3,4.7-1.3
			c2.3,0,3.7,0.5,4.6,1.1c0.6,0.4,0.9,0.9,1,1.1c0.4,0.7,0.4,1.7,0.4,2.5v7.6c0,1.1,0.1,1.4,0.6,2.3H151V20.7z M151,13.6
			c-0.6,0.3-1.3,0.6-2.7,0.8c-0.8,0.1-1.6,0.2-2.3,0.6c-0.5,0.3-0.8,0.8-0.8,1.4c0,0.9,0.6,1.7,2.3,1.7c1.9,0,3-1,3.3-1.6
			c0.2-0.5,0.2-0.9,0.2-1.3V13.6z"/>
	</g>
	<g>
		<path class="st1" d="M10.4,31l-0.6,2.5H9.1L9.7,31c0-0.2,0.1-0.5,0.1-0.7c0-0.4-0.3-0.6-0.7-0.6c-0.1,0-0.3,0-0.6,0.2
			c-0.5,0.3-0.6,0.7-0.7,1.2l-0.6,2.4H6.5L7,31.3c0.1-0.5,0.2-0.8,0.2-1s-0.1-0.5-0.3-0.5c-0.1-0.1-0.3-0.1-0.3-0.1
			c-0.2,0-0.3,0-0.5,0.1s-0.5,0.3-0.7,0.8c-0.1,0.2-0.2,0.5-0.2,0.7l-0.5,2.2H4l1-4.2h0.7L5.5,30c0.1-0.2,0.2-0.2,0.3-0.4
			c0.4-0.4,0.9-0.4,1.1-0.4c0.4,0,0.8,0.2,0.9,0.5c0,0.1,0.1,0.1,0.1,0.3c0,0,0.2-0.3,0.4-0.4c0.1-0.1,0.6-0.4,1.1-0.4
			c0.2,0,0.5,0.1,0.7,0.2s0.3,0.3,0.3,0.8C10.5,30.4,10.4,30.7,10.4,31z"/>
		<path class="st1" d="M16.2,33.4c-0.2,0.1-0.3,0.1-0.4,0.1c-0.1,0-0.2,0-0.3,0s-0.3-0.1-0.4-0.4c0-0.1,0-0.1,0-0.2
			c0,0.1,0,0.1-0.1,0.2c-0.2,0.2-0.6,0.5-1.3,0.5c-1,0-1.3-0.6-1.3-1.1c0-0.3,0.1-0.5,0.2-0.6c0.2-0.5,0.7-0.7,1.2-0.8
			c0.6-0.1,1.2-0.2,1.8-0.3c0-0.2,0.1-0.4,0.1-0.6c0-0.3-0.2-0.6-0.8-0.6c-0.3,0-0.5,0.1-0.6,0.1c-0.4,0.2-0.4,0.6-0.5,0.7L13,30.5
			c0.2-0.5,0.5-1.3,1.9-1.3c0.2,0,0.6,0,1,0.3c0,0,0.2,0.1,0.3,0.3c0.1,0.1,0.1,0.2,0.1,0.5c0,0.2,0,0.4-0.1,0.6l-0.4,1.7
			c0,0.1,0,0.2,0,0.3s0.1,0.2,0.1,0.2H16c0.1,0,0.1,0,0.3-0.1L16.2,33.4z M14.5,31.5c-0.5,0.1-0.8,0.2-0.9,0.3
			c-0.1,0.1-0.3,0.3-0.3,0.6S13.5,33,14,33c0.3,0,0.7-0.1,0.9-0.3c0.3-0.3,0.4-0.7,0.4-0.8l0.1-0.5C15.1,31.4,14.8,31.5,14.5,31.5z"
			/>
		<path class="st1" d="M22.5,30.9l-0.6,2.6h-0.7l0.6-2.6c0.1-0.3,0.1-0.3,0.1-0.5c0-0.5-0.3-0.7-0.7-0.7c-0.6,0-1,0.4-1.1,0.5
			c-0.2,0.2-0.3,0.5-0.5,1.2l-0.5,2.1h-0.7l1-4.2H20l-0.1,0.6c0.2-0.2,0.7-0.7,1.5-0.7c0.1,0,0.3,0,0.5,0.1s0.8,0.3,0.8,1
			C22.6,30.4,22.5,30.7,22.5,30.9z"/>
		<path class="st1" d="M28.3,33.4c-0.2,0.1-0.3,0.1-0.4,0.1s-0.2,0-0.3,0c-0.1,0-0.3-0.1-0.4-0.4c0-0.1,0-0.1,0-0.2
			c-0.1,0.1-0.1,0.2-0.2,0.2c-0.2,0.2-0.6,0.5-1.3,0.5c-1,0-1.3-0.6-1.3-1.1c0-0.3,0.1-0.5,0.2-0.6c0.2-0.5,0.7-0.7,1.2-0.8
			c0.6-0.1,1.2-0.2,1.8-0.3c0-0.2,0.1-0.4,0.1-0.6c0-0.3-0.2-0.6-0.8-0.6c-0.3,0-0.5,0.1-0.6,0.1c-0.4,0.2-0.4,0.6-0.5,0.7L25,30.3
			c0.2-0.5,0.5-1.3,1.9-1.3c0.2,0,0.6,0,1,0.3c0,0,0.2,0.1,0.3,0.3c0.1,0.1,0.1,0.2,0.1,0.5c0,0.2,0,0.4-0.1,0.6L28,32.4
			c0,0.1,0,0.2,0,0.3s0.1,0.2,0.1,0.2h0.1c0.1,0,0.1,0,0.3-0.1L28.3,33.4z M26.6,31.5c-0.5,0.1-0.8,0.2-0.9,0.3
			c-0.1,0.1-0.3,0.3-0.3,0.6s0.2,0.6,0.7,0.6c0.3,0,0.7-0.1,0.9-0.3c0.3-0.3,0.4-0.7,0.4-0.8l0.1-0.5C27.2,31.4,26.9,31.5,26.6,31.5
			z"/>
		<path class="st1" d="M34,33.2c-0.2,1-0.5,1.6-0.9,1.8c-0.2,0.2-0.6,0.4-1.2,0.4c-0.2,0-1,0-1.4-0.5c-0.1-0.1-0.3-0.4-0.3-0.8
			c0-0.1,0-0.1,0-0.3l0.7-0.1c0,0.2-0.1,0.2-0.1,0.3c0,0.2,0.1,0.3,0.1,0.4c0.1,0.2,0.4,0.4,0.9,0.4c0.3,0,0.8-0.1,1.1-0.6
			c0.1-0.2,0.3-0.7,0.4-1.2c-0.1,0-0.1,0.1-0.2,0.1c-0.2,0.1-0.5,0.4-1.1,0.4c-0.4,0-0.7-0.1-0.8-0.2c-0.5-0.3-0.7-1-0.7-1.5
			c0-0.1,0-0.4,0.1-0.8c0.3-1.1,0.9-1.6,1.4-1.8c0.1-0.1,0.4-0.1,0.8-0.1c0.1,0,0.3,0,0.5,0.1c0.4,0.1,0.6,0.5,0.7,0.6l0.1-0.6h0.7
			L34,33.2z M33.6,30c0,0-0.1-0.1-0.2-0.2c-0.1-0.1-0.3-0.1-0.5-0.1c-0.1,0-0.4,0-0.7,0.2c-0.8,0.5-0.9,1.7-0.9,1.9
			c0,1,0.6,1.2,1,1.2c0.7,0,1-0.6,1.1-0.7c0.1-0.3,0.2-0.6,0.2-0.7s0.1-0.5,0.1-0.8C33.8,30.7,33.8,30.3,33.6,30z"/>
		<path class="st1" d="M40.8,31.4h-3.2c0,0.2-0.1,1,0.5,1.4c0.2,0.1,0.4,0.2,0.7,0.2c0.4,0,0.7-0.2,1-0.4c0.1-0.2,0.2-0.4,0.3-0.4
			l0.7,0.1c-0.1,0.2-0.1,0.3-0.2,0.3c-0.2,0.4-0.8,1-1.9,1c-0.1,0-0.4,0-0.6-0.1c-0.8-0.3-1.1-0.9-1.1-1.7c0-0.3,0.1-1.4,0.9-2.1
			c0.2-0.2,0.7-0.6,1.5-0.6c0.4,0,0.9,0.1,1.2,0.4c0.2,0.2,0.4,0.6,0.4,1.3C40.8,31,40.8,31.1,40.8,31.4z M40,30.2
			c-0.2-0.5-0.7-0.6-0.9-0.6s-0.4,0.1-0.4,0.1c-0.3,0.1-0.6,0.3-0.8,0.6c0,0-0.1,0.2-0.2,0.3c-0.1,0.1-0.1,0.3-0.1,0.3H40
			C40.1,30.8,40.1,30.5,40,30.2z"/>
		<path class="st0" d="M46.8,33.5h-0.5l1.9-4.6h0.5L46.8,33.5z"/>
		<path class="st0" d="M49.8,33.5h-0.5l1.9-4.6h0.5L49.8,33.5z"/>
		<path class="st1" d="M58.7,29.8H58l-0.5,2.3c-0.1,0.3-0.1,0.4-0.1,0.5c0,0.2,0.1,0.3,0.3,0.3c0.1,0,0.2,0,0.5-0.1L58,33.4
			c0,0-0.1,0-0.1,0.1c-0.1,0.1-0.4,0.1-0.5,0.1c-0.4,0-0.7-0.2-0.7-0.6c0-0.2,0-0.3,0.1-0.7l0.6-2.5h-0.7l0.1-0.6h0.7l0.3-1.3h0.7
			l-0.3,1.3h0.7L58.7,29.8z"/>
		<path class="st1" d="M62.9,29.8c-0.1,0-0.2,0-0.4,0s-0.5,0.1-0.7,0.4c-0.4,0.4-0.5,1.1-0.5,1.2l-0.5,2h-0.7l1-4.2h0.7L61.6,30
			c0-0.1,0.1-0.1,0.1-0.2c0.1-0.2,0.4-0.4,0.6-0.5c0.2-0.1,0.4-0.1,0.5-0.1s0.1,0,0.2,0L62.9,29.8z"/>
		<path class="st1" d="M68,33.4c-0.2,0.1-0.3,0.1-0.4,0.1s-0.2,0-0.3,0c-0.1,0-0.3-0.1-0.4-0.4c0-0.1,0-0.1,0-0.2
			c-0.1,0.1-0.1,0.2-0.2,0.2c-0.2,0.2-0.6,0.5-1.3,0.5c-1,0-1.3-0.6-1.3-1.1c0-0.3,0.1-0.5,0.2-0.6c0.2-0.5,0.7-0.7,1.2-0.8
			c0.6-0.1,1.2-0.2,1.8-0.3c0-0.2,0.1-0.4,0.1-0.6c0-0.3-0.2-0.6-0.8-0.6c-0.3,0-0.5,0.1-0.6,0.1c-0.4,0.2-0.4,0.6-0.5,0.7l-0.8-0.1
			c0.2-0.5,0.5-1.3,1.9-1.3c0.2,0,0.6,0,1,0.3c0,0,0.2,0.1,0.3,0.3c0.1,0.1,0.1,0.2,0.1,0.5c0,0.2,0,0.4-0.1,0.6l-0.4,1.7
			c0,0.1,0,0.2,0,0.3s0.1,0.2,0.1,0.2h0.1c0.1,0,0.1,0,0.3-0.1L68,33.4z M66.3,31.5c-0.5,0.1-0.8,0.2-0.9,0.3
			c-0.1,0.1-0.3,0.3-0.3,0.6s0.2,0.6,0.7,0.6c0.3,0,0.7-0.1,0.9-0.3c0.3-0.3,0.4-0.7,0.4-0.8l0.1-0.5C66.9,31.4,66.6,31.5,66.3,31.5
			z"/>
		<path class="st1" d="M74.3,30.9l-0.6,2.6H73l0.6-2.6c0.1-0.3,0.1-0.3,0.1-0.5c0-0.5-0.3-0.7-0.7-0.7c-0.6,0-1,0.4-1.1,0.5
			c-0.2,0.2-0.3,0.5-0.5,1.2l-0.5,2.1h-0.7l1-4.2h0.7l-0.1,0.6c0.2-0.2,0.7-0.7,1.5-0.7c0.1,0,0.3,0,0.5,0.1s0.8,0.3,0.8,1
			C74.4,30.4,74.3,30.7,74.3,30.9z"/>
		<path class="st1" d="M80.1,30.4l-0.7,0.1c0,0,0-0.1,0-0.2s0-0.2-0.1-0.3c-0.1-0.2-0.3-0.4-0.8-0.4c-0.2,0-0.5,0-0.6,0.1
			c-0.2,0.1-0.3,0.3-0.3,0.5c0,0.4,0.4,0.5,0.6,0.6l0.7,0.3c0.1,0,0.2,0.1,0.3,0.1c0.4,0.2,0.6,0.5,0.6,0.9s-0.2,0.8-0.5,1
			c-0.4,0.3-0.9,0.4-1.3,0.4c-0.1,0-0.4,0-0.6-0.1c-0.3-0.1-1-0.3-1-1.2c0-0.1,0-0.1,0-0.3l0.7-0.1c0,0.1-0.1,0.2-0.1,0.4
			s0.1,0.5,0.3,0.6C77.6,33,78,33,78,33c0.5,0,0.8-0.2,0.9-0.3c0-0.1,0.2-0.2,0.2-0.4c0-0.3-0.2-0.4-0.6-0.6l-0.7-0.3
			c0,0-0.2-0.1-0.4-0.2c-0.5-0.3-0.5-0.6-0.5-0.8c0-0.1,0-0.4,0.3-0.7c0.2-0.3,0.6-0.6,1.4-0.6s1.2,0.3,1.4,0.7
			C80,29.9,80.1,30,80.1,30.4C80.1,30.3,80.1,30.3,80.1,30.4z"/>
		<path class="st1" d="M84.9,27.7c-0.1,0-0.3,0-0.3,0c-0.1,0-0.2,0-0.2,0.1c-0.1,0.1-0.2,0.2-0.2,0.5l-0.2,1h0.8l-0.1,0.5h-0.8
			L83,33.5h-0.7l0.9-3.7h-0.7l0.1-0.5h0.7l0.3-1.1c0.1-0.3,0.1-0.4,0.2-0.6c0.2-0.4,0.7-0.5,0.8-0.5c0.2,0,0.5,0.1,0.5,0.1
			L84.9,27.7z"/>
		<path class="st1" d="M89.6,32.7c-0.6,0.8-1.4,0.9-1.8,0.9c-0.1,0-0.4,0-0.7-0.1c-0.4-0.2-1.1-0.6-1.1-1.7c0-0.2,0-1,0.5-1.6
			c0.2-0.3,0.4-0.4,0.6-0.6c0.2-0.1,0.6-0.4,1.3-0.4c0.1,0,0.4,0,0.7,0.1c0.4,0.2,1,0.6,1.1,1.7C90.2,31.3,90.2,32,89.6,32.7z
			 M89.4,30.3c-0.2-0.4-0.5-0.7-0.9-0.7c-0.1,0-0.4,0-0.6,0.2c-0.7,0.3-1,1.2-1,1.9c0,0.6,0.2,0.9,0.5,1.1S87.9,33,88,33
			c0.2,0,0.7-0.1,1.1-0.5s0.6-1.1,0.6-1.7C89.5,30.7,89.4,30.5,89.4,30.3z"/>
		<path class="st1" d="M94.9,29.8c-0.1,0-0.2,0-0.4,0c-0.2,0-0.5,0.1-0.7,0.4c-0.4,0.4-0.5,1.1-0.5,1.2l-0.5,2h-0.7l1-4.2h0.7
			L93.6,30c0-0.1,0.1-0.1,0.1-0.2c0.1-0.2,0.4-0.4,0.6-0.5s0.4-0.1,0.6-0.1c0.1,0,0.1,0,0.2,0L94.9,29.8z"/>
		<path class="st1" d="M102.6,31l-0.6,2.5h-0.7l0.6-2.5c0-0.2,0.1-0.5,0.1-0.7c0-0.4-0.3-0.6-0.7-0.6c-0.1,0-0.3,0-0.6,0.2
			c-0.5,0.3-0.6,0.7-0.7,1.2l-0.6,2.4h-0.7l0.5-2.2c0.1-0.5,0.2-0.8,0.2-1s-0.1-0.5-0.3-0.5c-0.1-0.1-0.3-0.1-0.3-0.1
			c-0.2,0-0.3,0-0.5,0.1s-0.5,0.3-0.7,0.8c-0.1,0.2-0.2,0.5-0.2,0.7L97,33.5h-0.7l1-4.2H98L97.8,30c0.1-0.2,0.2-0.2,0.3-0.4
			c0.4-0.4,0.9-0.4,1.1-0.4c0.4,0,0.8,0.2,0.9,0.5c0,0.1,0.1,0.1,0.1,0.3c0,0,0.2-0.3,0.4-0.4c0.1-0.1,0.6-0.4,1.1-0.4
			c0.2,0,0.5,0.1,0.7,0.2s0.3,0.3,0.3,0.8C102.8,30.4,102.7,30.7,102.6,31z"/>
		<path class="st0" d="M108.8,33.5h-0.5l1.9-4.6h0.5L108.8,33.5z"/>
		<path class="st0" d="M111.8,33.5h-0.5l1.9-4.6h0.5L111.8,33.5z"/>
		<path class="st1" d="M121.9,33c-0.3,0.3-0.6,0.4-0.7,0.5c-0.1,0-0.3,0.1-0.7,0.1c-0.2,0-0.7,0-1.1-0.5c-0.1-0.1-0.1-0.2-0.1-0.3
			l-0.6,2.7H118l1.4-6.2h0.7l-0.1,0.5c0.2-0.2,0.5-0.6,1.3-0.6c0.1,0,0.3,0,0.5,0.1c0.5,0.1,1,0.5,1,1.6
			C122.7,32,122.2,32.7,121.9,33z M121.9,30.3c-0.2-0.4-0.5-0.6-0.9-0.6c-0.3,0-0.9,0.1-1.2,0.9c-0.2,0.4-0.3,0.9-0.3,1.4
			c0,0.2,0,0.4,0.1,0.5c0.1,0.2,0.4,0.5,0.9,0.5c0.1,0,0.4,0,0.7-0.2c0.8-0.5,0.9-1.7,0.9-1.9C122,30.8,122,30.5,121.9,30.3z"/>
		<path class="st1" d="M128.1,33.5h-0.7l0.2-0.7c-0.1,0.1-0.2,0.2-0.2,0.3c-0.4,0.3-0.8,0.5-1.3,0.5c-0.1,0-0.3,0-0.5-0.1
			c-0.6-0.2-0.7-0.7-0.7-0.9s0.1-0.6,0.1-0.8l0.6-2.5h0.7l-0.6,2.5c-0.1,0.3-0.1,0.4-0.1,0.6c0,0,0,0.2,0.1,0.3s0.3,0.3,0.7,0.3
			c0.2,0,0.7,0,1-0.4c0.4-0.4,0.5-0.9,0.6-1.5l0.4-1.9h0.7L128.1,33.5z"/>
		<path class="st1" d="M134.5,33c-0.2,0.2-0.7,0.5-1.5,0.5c-0.1,0-0.8,0-1.1-0.4c-0.1-0.1-0.2-0.3-0.2-0.5l-0.2,0.8h-0.7l1.5-6.4
			h0.7l-0.6,2.7c0.1-0.1,0.1-0.2,0.2-0.3c0.3-0.3,0.7-0.4,1.2-0.4c0.4,0,0.7,0.1,1,0.4c0.4,0.4,0.6,0.9,0.6,1.4
			C135.3,31.6,135,32.5,134.5,33z M134.3,30c-0.3-0.2-0.6-0.2-0.7-0.2c-0.3,0-1,0.1-1.3,0.9c-0.2,0.3-0.3,0.9-0.3,1.2
			c0,0.9,0.6,1.1,1,1.1s0.8-0.2,1.1-0.5c0.4-0.4,0.6-1.1,0.6-1.6C134.6,30.4,134.5,30.1,134.3,30z"/>
		<path class="st1" d="M137.9,33.5h-0.7l1.5-6.4h0.7L137.9,33.5z"/>
		<path class="st1" d="M141.4,33.5h-0.7l1-4.2h0.7L141.4,33.5z M142.7,27.9H142l0.2-0.8h0.7L142.7,27.9z"/>
		<path class="st1" d="M147.8,30.4l-0.7,0.1c0,0,0-0.1,0-0.2s0-0.2-0.1-0.3c-0.1-0.2-0.3-0.4-0.8-0.4c-0.2,0-0.5,0-0.6,0.1
			c-0.2,0.1-0.3,0.3-0.3,0.5c0,0.4,0.4,0.5,0.7,0.6l0.7,0.3c0.1,0,0.2,0.1,0.3,0.1c0.4,0.2,0.6,0.5,0.6,0.9s-0.2,0.8-0.5,1
			c-0.4,0.3-0.9,0.4-1.3,0.4c-0.1,0-0.4,0-0.6-0.1c-0.3-0.1-1-0.3-1-1.2c0-0.1,0-0.1,0-0.3l0.7-0.1c0,0.1-0.1,0.2-0.1,0.4
			s0.1,0.5,0.3,0.6c0.3,0.2,0.7,0.2,0.7,0.2c0.5,0,0.8-0.2,0.9-0.3c0-0.1,0.2-0.2,0.2-0.4c0-0.3-0.2-0.4-0.6-0.6l-0.7-0.3
			c0,0-0.2-0.1-0.4-0.2c-0.5-0.3-0.5-0.6-0.5-0.8c0-0.1,0-0.4,0.3-0.7c0.2-0.3,0.6-0.6,1.4-0.6c0.8,0,1.2,0.3,1.4,0.7
			C147.8,29.9,147.9,30,147.8,30.4C147.8,30.3,147.8,30.3,147.8,30.4z"/>
		<path class="st1" d="M153.9,30.8l-0.6,2.7h-0.7l0.6-2.7c0.1-0.2,0.1-0.3,0.1-0.4c0-0.4-0.3-0.6-0.7-0.6c-0.1,0-0.3,0-0.5,0.1
			s-0.5,0.2-0.8,0.7c-0.1,0.2-0.2,0.3-0.2,0.4c-0.1,0.2-0.1,0.4-0.2,0.6l-0.5,2h-0.7l1.5-6.4h0.7l-0.7,2.8c0.1-0.2,0.2-0.3,0.4-0.4
			c0.2-0.2,0.5-0.4,1.1-0.4c0.1,0,0.7,0,1,0.4c0.1,0.1,0.2,0.3,0.2,0.6C154,30.4,153.9,30.8,153.9,30.8z"/>
	</g>
</g>
</svg>
